<svg xmlns="http://www.w3.org/2000/svg" viewBox="0 0 128 128">
<path fill="#23c" d="M0 0h128v128H0z"/>
<path fill="#fff" d="M59 72c2 0 5 3 6 4s-1 6-1 11v32c0 1-2 2-4 2-4 0-9-5-9-8 6 1 8 1 8-3V99.2C55.5 106 49.7 115 44 115c-2 0-6.7-4-7-6 1 .3 2.6 1.5 5 1 4.4-.9 11.9-8 17-13v-6c0-10-3-11.9-3-16 0-2 1-3 3-3Zm10.1 30c8.5 0 18.1 1 19.8 7.6 1.2 4.4-2.8 5.5-5.6 3.3L69 102ZM54 6c7 0 11 5 11 9 0 1.6.5 6.2.1 13l6.9-2c3.5-1 6 2 6 3 0 2-.1 1.8-7 3-1.3.2-3.6.8-6.3 1.5-.2 2.5-.6 5.1-1 8 3-.9 5.4-1.5 6.3-1.5 3 0 6 3 4 4s-3 1-7 2l-4.6 1.3c-.8 3.3-1.8 6.9-3 10.5 5.7-1.6 11-3 14.6-3.8 3-.7 4.4-3 6-3 2 0 4 0 4 3 0 2-6 3-11 4-2 .4-8 2-15.1 4a98 98 0 0 1-3.9 9 84 84 0 0 1-48 40 120 120 0 0 0 42-46.3C36.5 67.9 25 71 24 71c-2 0-5-1-5-3 0-.3 2-1 5-1 2.3 0 14-3.2 26-6.6 1.4-3.4 2.7-6.9 3.7-10.6A86.2 86.2 0 0 1 40 53c-3.2 0-6.2-.7-6-2 .2-1.3 4.9-2.2 8-3l13.1-4c.6-2.6 1-5.3 1.3-8.1C48 38.3 39.2 41 38 41c-2 0-5 0-5-2s1-2 5-3l19-5.5a95 95 0 0 0 0-8.5c-.3-10 0-11-3-16Zm18 61c1.6 0 37 26 49 26-3 1.3-10.6 4-17 4-10 0-25.3-18.7-34-28 0-1 .4-2 2-2ZM44 94c1-2 6-3.8 8-3 5 2 3 7-2 5l-6-2Zm29-10c2 0 6 .8 6 4s-7.7 5.7-11 6c2-1 6-4.6 6-7 0-2.4-.7-2.7-1-3Z"/>
</svg>
